G04*
G04 #@! TF.GenerationSoftware,Altium Limited,Altium Designer,18.0.7 (293)*
G04*
G04 Layer_Physical_Order=1*
G04 Layer_Color=255*
%FSLAX44Y44*%
%MOMM*%
G71*
G01*
G75*
%ADD10R,1.2700X3.0480*%
%ADD11R,2.2860X3.8100*%
%ADD12R,3.0480X1.2700*%
%ADD13R,3.8100X2.2860*%
%ADD14C,0.5000*%
%ADD15O,2.0000X1.4000*%
%ADD16O,1.6000X1.4000*%
%ADD17C,3.9370*%
%ADD18C,1.5240*%
%ADD19C,4.5000*%
G36*
X596115Y3885D02*
X3885D01*
Y596115D01*
X596115D01*
Y3885D01*
D02*
G37*
%LPC*%
G36*
X166590Y580610D02*
X146270D01*
Y567910D01*
X166590D01*
Y580610D01*
D02*
G37*
G36*
X143730D02*
X123410D01*
Y567910D01*
X143730D01*
Y580610D01*
D02*
G37*
G36*
X356590Y575610D02*
X336270D01*
Y562910D01*
X356590D01*
Y575610D01*
D02*
G37*
G36*
X333730D02*
X313410D01*
Y562910D01*
X333730D01*
Y575610D01*
D02*
G37*
G36*
X166590Y565370D02*
X146270D01*
Y552670D01*
X166590D01*
Y565370D01*
D02*
G37*
G36*
X143730D02*
X123410D01*
Y552670D01*
X143730D01*
Y565370D01*
D02*
G37*
G36*
X356590Y560370D02*
X336270D01*
Y547670D01*
X356590D01*
Y560370D01*
D02*
G37*
G36*
X333730D02*
X313410D01*
Y547670D01*
X333730D01*
Y560370D01*
D02*
G37*
G36*
X550000Y575161D02*
X545091Y574678D01*
X540371Y573246D01*
X536021Y570921D01*
X532208Y567792D01*
X529079Y563979D01*
X526754Y559629D01*
X525322Y554909D01*
X524839Y550000D01*
X525322Y545091D01*
X526754Y540371D01*
X529079Y536021D01*
X532208Y532208D01*
X536021Y529079D01*
X540371Y526754D01*
X545091Y525322D01*
X550000Y524839D01*
X554909Y525322D01*
X559629Y526754D01*
X563979Y529079D01*
X567792Y532208D01*
X570921Y536021D01*
X573246Y540371D01*
X574678Y545091D01*
X575161Y550000D01*
X574678Y554909D01*
X573246Y559629D01*
X570921Y563979D01*
X567792Y567792D01*
X563979Y570921D01*
X559629Y573246D01*
X554909Y574678D01*
X550000Y575161D01*
D02*
G37*
G36*
X50000D02*
X45091Y574678D01*
X40371Y573246D01*
X36021Y570921D01*
X32208Y567792D01*
X29079Y563979D01*
X26754Y559629D01*
X25322Y554909D01*
X24839Y550000D01*
X25322Y545091D01*
X26754Y540371D01*
X29079Y536021D01*
X32208Y532208D01*
X36021Y529079D01*
X40371Y526754D01*
X45091Y525322D01*
X50000Y524839D01*
X54909Y525322D01*
X59629Y526754D01*
X63979Y529079D01*
X67792Y532208D01*
X70921Y536021D01*
X73246Y540371D01*
X74678Y545091D01*
X75161Y550000D01*
X74678Y554909D01*
X73246Y559629D01*
X70921Y563979D01*
X67792Y567792D01*
X63979Y570921D01*
X59629Y573246D01*
X54909Y574678D01*
X50000Y575161D01*
D02*
G37*
G36*
X166590Y476470D02*
X146270D01*
Y463770D01*
X166590D01*
Y476470D01*
D02*
G37*
G36*
X143730D02*
X123410D01*
Y463770D01*
X143730D01*
Y476470D01*
D02*
G37*
G36*
X356590Y471470D02*
X336270D01*
Y458770D01*
X356590D01*
Y471470D01*
D02*
G37*
G36*
X333730D02*
X313410D01*
Y458770D01*
X333730D01*
Y471470D01*
D02*
G37*
G36*
X166590Y461230D02*
X146270D01*
Y448530D01*
X166590D01*
Y461230D01*
D02*
G37*
G36*
X143730D02*
X123410D01*
Y448530D01*
X143730D01*
Y461230D01*
D02*
G37*
G36*
X356590Y456230D02*
X336270D01*
Y443530D01*
X356590D01*
Y456230D01*
D02*
G37*
G36*
X333730D02*
X313410D01*
Y443530D01*
X333730D01*
Y456230D01*
D02*
G37*
G36*
X483850Y487867D02*
X478048Y487103D01*
X472642Y484864D01*
X467999Y481301D01*
X464436Y476658D01*
X462197Y471252D01*
X461433Y465450D01*
X462197Y459648D01*
X464436Y454242D01*
X467999Y449599D01*
X472642Y446036D01*
X478048Y443797D01*
X483850Y443033D01*
X489652Y443797D01*
X495058Y446036D01*
X499701Y449599D01*
X503264Y454242D01*
X505503Y459648D01*
X506267Y465450D01*
X505503Y471252D01*
X503264Y476658D01*
X499701Y481301D01*
X495058Y484864D01*
X489652Y487103D01*
X483850Y487867D01*
D02*
G37*
G36*
X166860Y440920D02*
X146540D01*
Y428220D01*
X166860D01*
Y440920D01*
D02*
G37*
G36*
X144000D02*
X123680D01*
Y428220D01*
X144000D01*
Y440920D01*
D02*
G37*
G36*
X450830Y433173D02*
X447378Y432486D01*
X444222Y430378D01*
X442113Y427222D01*
X441626Y424770D01*
X450830D01*
Y433173D01*
D02*
G37*
G36*
X356590Y436470D02*
X336270D01*
Y423770D01*
X356590D01*
Y436470D01*
D02*
G37*
G36*
X333730D02*
X313410D01*
Y423770D01*
X333730D01*
Y436470D01*
D02*
G37*
G36*
X166860Y425680D02*
X146540D01*
Y412980D01*
X166860D01*
Y425680D01*
D02*
G37*
G36*
X144000D02*
X123680D01*
Y412980D01*
X144000D01*
Y425680D01*
D02*
G37*
G36*
X305139Y535050D02*
X185000Y534958D01*
X185000Y208064D01*
X305139Y206773D01*
Y335372D01*
X322128Y352361D01*
X441060D01*
X442222Y350622D01*
X445378Y348513D01*
X449100Y347773D01*
X455100D01*
X458822Y348513D01*
X461978Y350622D01*
X467622D01*
X470778Y348513D01*
X474500Y347773D01*
X480500D01*
X484222Y348513D01*
X487378Y350622D01*
X488540Y352361D01*
X500372D01*
X514861Y337872D01*
Y304629D01*
X372872Y162639D01*
X360812D01*
X356590Y166890D01*
X356590Y168639D01*
Y179590D01*
X335000D01*
X313410D01*
Y168639D01*
X313410Y166890D01*
X309188Y162639D01*
X225000D01*
X223034Y162248D01*
X221366Y161134D01*
X191366Y131134D01*
X190252Y129466D01*
X189861Y127500D01*
Y120280D01*
X186110D01*
Y84720D01*
X203890D01*
Y84720D01*
X206430D01*
Y84720D01*
X224210D01*
Y120280D01*
X227300Y125000D01*
X375520D01*
X378610Y120280D01*
Y84720D01*
X396390D01*
Y84720D01*
X398930D01*
Y84720D01*
X416710D01*
Y120280D01*
X416710D01*
X418009Y125742D01*
X561134Y268866D01*
X562248Y270534D01*
X562639Y272500D01*
Y375000D01*
X562248Y376967D01*
X561134Y378634D01*
X533549Y406219D01*
X533729Y406642D01*
X537085Y411167D01*
X539730Y410641D01*
X543694Y411429D01*
X547055Y413675D01*
X549300Y417036D01*
X550089Y421000D01*
X549300Y424964D01*
X547055Y428325D01*
X543694Y430570D01*
X539730Y431359D01*
X535766Y430570D01*
X532405Y428325D01*
X530159Y424964D01*
X529371Y421000D01*
X529897Y418355D01*
X525372Y414999D01*
X524949Y414819D01*
X512634Y427134D01*
X510966Y428248D01*
X509000Y428639D01*
X488540D01*
X487378Y430378D01*
X484222Y432486D01*
X480500Y433227D01*
X474500D01*
X470778Y432486D01*
X467622Y430378D01*
X467228Y429788D01*
X460372D01*
X459978Y430378D01*
X456822Y432486D01*
X453370Y433173D01*
Y423500D01*
X452100D01*
Y422230D01*
X441626D01*
X442113Y419778D01*
X444222Y416622D01*
X445402Y415833D01*
X445504Y415559D01*
Y409441D01*
X445402Y409167D01*
X444222Y408378D01*
X442113Y405222D01*
X441626Y402770D01*
X452100D01*
Y400230D01*
X441626D01*
X442113Y397778D01*
X444222Y394622D01*
X444508Y394431D01*
X444790Y392500D01*
X443991Y387560D01*
X442222Y386378D01*
X441394Y385139D01*
X327500D01*
X326802Y385000D01*
X305139D01*
Y515139D01*
X305139Y535050D01*
D02*
G37*
G36*
X356590Y421230D02*
X336270D01*
Y408530D01*
X356590D01*
Y421230D01*
D02*
G37*
G36*
X333730D02*
X313410D01*
Y408530D01*
X333730D01*
Y421230D01*
D02*
G37*
G36*
X166860Y336780D02*
X146540D01*
Y324080D01*
X166860D01*
Y336780D01*
D02*
G37*
G36*
X144000D02*
X123680D01*
Y324080D01*
X144000D01*
Y336780D01*
D02*
G37*
G36*
X356590Y332330D02*
X336270D01*
Y319630D01*
X356590D01*
Y332330D01*
D02*
G37*
G36*
X333730D02*
X313410D01*
Y319630D01*
X333730D01*
Y332330D01*
D02*
G37*
G36*
X483850Y339277D02*
X478048Y338513D01*
X472642Y336273D01*
X467999Y332711D01*
X464436Y328068D01*
X462197Y322662D01*
X461433Y316860D01*
X462197Y311058D01*
X464436Y305652D01*
X467999Y301009D01*
X472642Y297446D01*
X478048Y295207D01*
X483850Y294443D01*
X489652Y295207D01*
X495058Y297446D01*
X499701Y301009D01*
X503264Y305652D01*
X505503Y311058D01*
X506267Y316860D01*
X505503Y322662D01*
X503264Y328068D01*
X499701Y332711D01*
X495058Y336273D01*
X489652Y338513D01*
X483850Y339277D01*
D02*
G37*
G36*
X166860Y321540D02*
X123680D01*
Y309858D01*
X123410Y303970D01*
X123410Y302952D01*
Y291270D01*
X166590D01*
Y302952D01*
X166860Y308840D01*
X166860Y309858D01*
Y321540D01*
D02*
G37*
G36*
X356590Y317090D02*
X335000D01*
X313410D01*
Y304970D01*
X313410Y304390D01*
Y298970D01*
X313410Y298390D01*
Y286270D01*
X335000D01*
X356590D01*
Y298390D01*
X356590Y298970D01*
Y304390D01*
X356590Y304970D01*
Y317090D01*
D02*
G37*
G36*
X166590Y288730D02*
X146270D01*
Y276030D01*
X166590D01*
Y288730D01*
D02*
G37*
G36*
X143730D02*
X123410D01*
Y276030D01*
X143730D01*
Y288730D01*
D02*
G37*
G36*
X356590Y283730D02*
X336270D01*
Y271030D01*
X356590D01*
Y283730D01*
D02*
G37*
G36*
X333730D02*
X313410D01*
Y271030D01*
X333730D01*
Y283730D01*
D02*
G37*
G36*
X166590Y199830D02*
X146270D01*
Y187130D01*
X166590D01*
Y199830D01*
D02*
G37*
G36*
X143730D02*
X123410D01*
Y187130D01*
X143730D01*
Y199830D01*
D02*
G37*
G36*
X356590Y194830D02*
X336270D01*
Y182130D01*
X356590D01*
Y194830D01*
D02*
G37*
G36*
X333730D02*
X313410D01*
Y182130D01*
X333730D01*
Y194830D01*
D02*
G37*
G36*
X166590Y184590D02*
X146270D01*
Y171890D01*
X166590D01*
Y184590D01*
D02*
G37*
G36*
X143730D02*
X123410D01*
Y171890D01*
X143730D01*
Y184590D01*
D02*
G37*
G36*
X461160Y61860D02*
X448460D01*
Y41540D01*
X461160D01*
Y61860D01*
D02*
G37*
G36*
X357020D02*
X344320D01*
Y41540D01*
X357020D01*
Y61860D01*
D02*
G37*
G36*
X445920D02*
X433220D01*
Y41540D01*
X445920D01*
Y61860D01*
D02*
G37*
G36*
X341780D02*
X329080D01*
Y41540D01*
X341780D01*
Y61860D01*
D02*
G37*
G36*
X268660D02*
X255960D01*
Y41540D01*
X268660D01*
Y61860D01*
D02*
G37*
G36*
X164520D02*
X151820D01*
Y41540D01*
X164520D01*
Y61860D01*
D02*
G37*
G36*
X253420D02*
X240720D01*
Y41540D01*
X253420D01*
Y61860D01*
D02*
G37*
G36*
X149280D02*
X136580D01*
Y41540D01*
X149280D01*
Y61860D01*
D02*
G37*
G36*
X550000Y75161D02*
X545091Y74678D01*
X540371Y73246D01*
X536021Y70921D01*
X532208Y67792D01*
X529079Y63979D01*
X526754Y59629D01*
X525322Y54909D01*
X524839Y50000D01*
X525322Y45091D01*
X526754Y40371D01*
X529079Y36021D01*
X532208Y32208D01*
X536021Y29079D01*
X540371Y26754D01*
X545091Y25322D01*
X550000Y24839D01*
X554909Y25322D01*
X559629Y26754D01*
X563979Y29079D01*
X567792Y32208D01*
X570921Y36021D01*
X573246Y40371D01*
X574678Y45091D01*
X575161Y50000D01*
X574678Y54909D01*
X573246Y59629D01*
X570921Y63979D01*
X567792Y67792D01*
X563979Y70921D01*
X559629Y73246D01*
X554909Y74678D01*
X550000Y75161D01*
D02*
G37*
G36*
X50000D02*
X45091Y74678D01*
X40371Y73246D01*
X36021Y70921D01*
X32208Y67792D01*
X29079Y63979D01*
X26754Y59629D01*
X25322Y54909D01*
X24839Y50000D01*
X25322Y45091D01*
X26754Y40371D01*
X29079Y36021D01*
X32208Y32208D01*
X36021Y29079D01*
X40371Y26754D01*
X45091Y25322D01*
X50000Y24839D01*
X54909Y25322D01*
X59629Y26754D01*
X63979Y29079D01*
X67792Y32208D01*
X70921Y36021D01*
X73246Y40371D01*
X74678Y45091D01*
X75161Y50000D01*
X74678Y54909D01*
X73246Y59629D01*
X70921Y63979D01*
X67792Y67792D01*
X63979Y70921D01*
X59629Y73246D01*
X54909Y74678D01*
X50000Y75161D01*
D02*
G37*
G36*
X461160Y39000D02*
X448460D01*
Y18680D01*
X461160D01*
Y39000D01*
D02*
G37*
G36*
X445920D02*
X433220D01*
Y18680D01*
X445920D01*
Y39000D01*
D02*
G37*
G36*
X357020D02*
X344320D01*
Y18680D01*
X357020D01*
Y39000D01*
D02*
G37*
G36*
X341780D02*
X329080D01*
Y18680D01*
X341780D01*
Y39000D01*
D02*
G37*
G36*
X268660Y39000D02*
X255960D01*
Y18680D01*
X268660D01*
Y39000D01*
D02*
G37*
G36*
X253420D02*
X240720D01*
Y18680D01*
X253420D01*
Y39000D01*
D02*
G37*
G36*
X164520D02*
X151820D01*
Y18680D01*
X164520D01*
Y39000D01*
D02*
G37*
G36*
X149280D02*
X136580D01*
Y18680D01*
X149280D01*
Y39000D01*
D02*
G37*
%LPD*%
D10*
X387500Y102500D02*
D03*
X407820D02*
D03*
X195000D02*
D03*
X215320D02*
D03*
D11*
X343050Y40270D02*
D03*
X447190D02*
D03*
X150550D02*
D03*
X254690D02*
D03*
D12*
X272770Y225310D02*
D03*
Y245630D02*
D03*
X207230Y245550D02*
D03*
Y225230D02*
D03*
X207500Y382500D02*
D03*
Y362180D02*
D03*
X207230Y522190D02*
D03*
Y501870D02*
D03*
X272770Y501950D02*
D03*
Y522270D02*
D03*
Y362810D02*
D03*
Y383130D02*
D03*
D13*
X335000Y180860D02*
D03*
Y285000D02*
D03*
X145000Y290000D02*
D03*
Y185860D02*
D03*
X145270Y426950D02*
D03*
Y322810D02*
D03*
X145000Y566640D02*
D03*
Y462500D02*
D03*
X335000Y457500D02*
D03*
Y561640D02*
D03*
Y318360D02*
D03*
Y422500D02*
D03*
D14*
X320000Y357500D02*
X452100D01*
X300000Y337500D02*
X320000Y357500D01*
X520000Y302500D02*
Y340000D01*
X502500Y357500D02*
X520000Y340000D01*
X477500Y357500D02*
X502500D01*
X375000Y157500D02*
X520000Y302500D01*
X505500Y379500D02*
X532500Y352500D01*
Y292500D02*
Y352500D01*
X382500Y142500D02*
X532500Y292500D01*
X506000Y401500D02*
X545000Y362500D01*
Y282500D02*
Y362500D01*
X387500Y125000D02*
X545000Y282500D01*
X509000Y423500D02*
X557500Y375000D01*
Y272500D02*
Y375000D01*
X407500Y122500D02*
X557500Y272500D01*
X477500Y423500D02*
X509000D01*
X477500Y401500D02*
X506000D01*
X477500Y379500D02*
X505500D01*
X327500Y380000D02*
X452100D01*
X195000Y127500D02*
X225000Y157500D01*
X195000Y102500D02*
Y127500D01*
Y100000D02*
Y102500D01*
X215320D02*
Y122820D01*
X235000Y142500D01*
X407500Y111870D02*
Y122500D01*
X387500Y112190D02*
Y125000D01*
X235000Y142500D02*
X382500D01*
X225000Y157500D02*
X375000D01*
X310310Y362810D02*
X327500Y380000D01*
X272770Y362810D02*
X310310D01*
X300000Y252500D02*
Y337500D01*
X293130Y245630D02*
X300000Y252500D01*
X272770Y245630D02*
X293130D01*
X272770Y383130D02*
X295630D01*
X300000Y387500D01*
Y495000D01*
X293050Y501950D02*
X300000Y495000D01*
X272770Y501950D02*
X293050D01*
X207310Y522270D02*
X272770D01*
X207230Y522190D02*
X207310Y522270D01*
X207230Y501870D02*
X228130D01*
X232500Y497500D01*
Y388450D02*
Y497500D01*
X226550Y382500D02*
X232500Y388450D01*
X207500Y382500D02*
X226550D01*
X207500Y362180D02*
X227820D01*
X232500Y357500D01*
Y251770D02*
Y357500D01*
X226280Y245550D02*
X232500Y251770D01*
X207230Y245550D02*
X226280D01*
X207230Y225230D02*
X272690D01*
X272770Y225310D01*
D15*
X452100Y357500D02*
D03*
Y379500D02*
D03*
X477500Y357500D02*
D03*
Y379500D02*
D03*
Y401500D02*
D03*
Y423500D02*
D03*
D16*
X452100Y401500D02*
D03*
Y423500D02*
D03*
D17*
X483850Y316860D02*
D03*
Y465450D02*
D03*
D18*
X539730Y421000D02*
D03*
D19*
X550000Y550000D02*
D03*
Y50000D02*
D03*
X50000Y550000D02*
D03*
Y50000D02*
D03*
M02*
